<svg width="239" height="34" viewBox="0 0 239 34" fill="none" xmlns="http://www.w3.org/2000/svg">
<g clip-path="url(#clip0_3720_16)">
<path d="M0.551628 33.0811L21.1884 0.918915H30.1509L37.9184 33.0811H28.8639L23.1187 5.23784H26.7037L10.1576 33.0811H0.551628ZM9.56009 26.8324L13.237 20.1243H28.9559L29.967 26.8324H9.56009Z" fill="white"/>
<path d="M40.5442 33.0811L46.9789 0.918915H56.0792L49.6446 33.0811H40.5442Z" fill="white"/>
<path d="M77.9968 33.7243C76.1584 33.7243 74.3965 33.5711 72.7112 33.2649C71.026 32.9892 69.4939 32.591 68.1151 32.0703C66.7362 31.5189 65.5566 30.9216 64.576 30.2784L68.1611 23.4784C69.2641 24.1522 70.3978 24.7343 71.5622 25.2243C72.7572 25.6838 73.9676 26.036 75.1932 26.2811C76.4188 26.5262 77.6445 26.6487 78.8701 26.6487C80.0345 26.6487 81.0303 26.5414 81.8576 26.327C82.6849 26.082 83.313 25.7451 83.742 25.3162C84.171 24.8874 84.3855 24.382 84.3855 23.8C84.3855 23.1568 84.0944 22.6514 83.5122 22.2838C82.9607 21.8856 82.2253 21.5487 81.3061 21.273C80.3868 20.9973 79.3603 20.7216 78.2266 20.4459C77.1235 20.1397 76.0051 19.7874 74.8714 19.3892C73.7684 18.9603 72.7572 18.4397 71.838 17.827C70.9187 17.1838 70.168 16.3721 69.5859 15.3919C69.0343 14.4117 68.7586 13.2018 68.7586 11.7622C68.7586 9.43427 69.3867 7.41262 70.643 5.6973C71.8993 3.98198 73.6764 2.64955 75.9745 1.7C78.3032 0.750448 81.0456 0.275673 84.2016 0.275673C86.4997 0.275673 88.6445 0.520718 90.6362 1.01081C92.6281 1.47027 94.3434 2.14414 95.7838 3.03243L92.4746 9.78649C91.2184 8.99009 89.8243 8.39279 88.2922 7.99459C86.7908 7.56576 85.2434 7.35135 83.6501 7.35135C82.4245 7.35135 81.3674 7.48919 80.4787 7.76486C79.6208 8.04054 78.962 8.42342 78.5024 8.91351C78.0734 9.37297 77.8589 9.89372 77.8589 10.4757C77.8589 11.0883 78.1347 11.5937 78.6862 11.9919C79.2378 12.3901 79.9732 12.727 80.8924 13.0027C81.8422 13.2784 82.8687 13.5694 83.9718 13.8757C85.1055 14.1514 86.2239 14.4883 87.327 14.8865C88.4301 15.2541 89.4566 15.7595 90.4064 16.4027C91.3563 17.0153 92.1069 17.7964 92.6585 18.7459C93.21 19.6955 93.4858 20.8748 93.4858 22.2838C93.4858 24.5811 92.8579 26.5874 91.6014 28.3027C90.3451 30.0181 88.5526 31.3505 86.2239 32.3C83.8953 33.2495 81.1528 33.7243 77.9968 33.7243Z" fill="#B5EF3B"/>
<path d="M95.759 33.0811L102.194 0.918915H115.798C119.965 0.918915 123.182 1.82252 125.45 3.62973C127.718 5.43694 128.851 7.97927 128.851 11.2568C128.851 13.9522 128.208 16.3108 126.921 18.3324C125.634 20.3541 123.796 21.9162 121.406 23.0189C119.016 24.1216 116.196 24.673 112.949 24.673H102.515L107.341 20.6297L104.859 33.0811H95.759ZM107.112 21.6865L103.94 17.5054H113.362C115.354 17.5054 116.901 17.0306 118.004 16.0811C119.107 15.1316 119.659 13.7838 119.659 12.0378C119.659 10.6901 119.215 9.69459 118.326 9.05135C117.437 8.40811 116.196 8.08648 114.603 8.08648H105.871L110.697 3.76757L107.112 21.6865Z" fill="#B5EF3B"/>
<path d="M172.632 33.0811L179.066 0.918915H192.809C196.945 0.918915 200.132 1.82252 202.369 3.62973C204.636 5.43694 205.77 7.94865 205.77 11.1649C205.77 13.8603 205.111 16.2189 203.793 18.2405C202.507 20.2316 200.668 21.7784 198.278 22.8811C195.888 23.9838 193.069 24.5351 189.821 24.5351H179.388L184.214 20.6297L181.732 33.0811H172.632ZM192.809 33.0811L186.236 21.3649H195.658L202.323 33.0811H192.809ZM183.984 21.6865L180.813 17.5054H190.235C192.257 17.5054 193.82 17.0306 194.923 16.0811C196.026 15.1316 196.577 13.7838 196.577 12.0378C196.577 10.6901 196.133 9.69459 195.245 9.05135C194.356 8.40811 193.115 8.08648 191.522 8.08648H182.743L187.615 3.76757L183.984 21.6865Z" fill="#B5EF3B"/>
<path d="M213.008 33.0811L218.018 8.13243H208.136L209.607 0.918915H238.425L236.954 8.13243H227.118L222.108 33.0811H213.008Z" fill="#B5EF3B"/>
<path d="M167.3 16.5405C167.3 25.6756 159.892 33.0811 150.754 33.0811C141.616 33.0811 134.208 25.6756 134.208 16.5405C134.208 7.40545 141.616 0 150.754 0C159.892 0 167.3 7.40545 167.3 16.5405Z" fill="#B5EF3B"/>
<path fill-rule="evenodd" clip-rule="evenodd" d="M140.125 28.1154C139.29 28.6694 138.33 28.0286 138.882 27.1446C139.437 26.2582 150.116 10.8056 150.754 9.96967C151.395 9.13383 152.022 8.93635 152.846 9.08328C153.67 9.23022 155.012 9.48798 155.564 10.7068C156.118 11.9257 156.745 13.3011 156.907 13.5613C157.066 13.819 157.386 13.5974 157.853 13.3396C158.32 13.0819 160.697 12.0726 161.545 11.5691C162.393 11.0658 163.157 11.8269 162.653 12.5279C162.15 13.2288 158.518 16.7457 158.014 17.2516C157.511 17.755 156.28 18.0031 155.516 17.0926C155.111 16.6084 154.755 16.1989 154.508 15.9195C154.415 15.8112 154.294 15.7533 154.152 15.7437C154.01 15.7341 153.882 15.7774 153.776 15.8737C149.644 19.5231 144.255 24.4612 140.125 28.1154ZM156.499 4.32585C157.791 4.32585 158.836 5.37128 158.836 6.6624C158.836 7.95353 157.791 8.99893 156.499 8.99893C155.207 8.99893 154.162 7.95353 154.162 6.6624C154.162 5.37128 155.207 4.32585 156.499 4.32585ZM154.501 17.4805C155.14 18.1765 155.805 18.9064 156.094 19.2413C156.735 19.9784 156.831 20.742 156.046 21.479C155.258 22.2162 152.034 24.4804 150.754 25.3163C149.475 26.1522 148.465 25.5379 149.179 24.7021C149.892 23.8662 151.222 22.2667 151.762 21.6019C152.003 21.308 151.708 20.9009 151.224 20.4842C151.104 20.3807 151.038 20.2434 151.038 20.0819C151.038 19.9229 151.099 19.7833 151.219 19.6772L153.75 17.4395C153.972 17.2492 154.303 17.2661 154.501 17.4805ZM148.451 9.77698C148.195 9.85894 147.93 9.9456 147.653 10.042C145.441 10.8031 142.439 11.9859 141.429 12.4267C140.419 12.87 140.862 14.1249 141.897 13.9274C142.409 13.8287 144.867 13.4167 147.214 13.0265C147.367 13.0024 147.487 12.9229 147.571 12.7953C148.123 11.9714 148.629 11.2199 149.058 10.584C149.188 10.3913 149.181 10.1503 149.044 9.9649C148.904 9.77946 148.672 9.70714 148.451 9.77698Z" fill="#212122"/>
</g>
<defs>
<clipPath id="clip0_3720_16">
<rect width="239" height="34" fill="white"/>
</clipPath>
</defs>
</svg>
